<svg width="12" height="12" viewBox="0 0 12 12" fill="none" xmlns="http://www.w3.org/2000/svg">
<path d="M6.87809 7.64107C6.92405 7.48993 6.92745 7.33759 6.88828 7.18405C6.84911 7.03052 6.77022 6.90402 6.65162 6.80454C6.53303 6.70507 6.38143 6.65533 6.19681 6.65533H5.04224L7.07171 3.14581C7.14342 3.0215 7.16447 2.89381 7.13487 2.76271C7.10526 2.63161 7.02499 2.5302 6.89407 2.45849C6.77051 2.3945 6.64438 2.38301 6.51568 2.42402C6.38697 2.46503 6.28768 2.544 6.21781 2.66093L6.03187 2.98476L5.84101 2.66093C5.77374 2.54216 5.67611 2.46272 5.54812 2.42263C5.42013 2.38254 5.29399 2.3945 5.16968 2.45849C5.04244 2.5302 4.96494 2.63161 4.93717 2.76271C4.90941 2.89381 4.93139 3.0215 5.0031 3.14581L5.47528 3.97214L3.91747 6.65533H2.69283C2.55971 6.65533 2.44341 6.70314 2.34394 6.79876C2.24446 6.89437 2.19472 7.01444 2.19472 7.15896C2.19472 7.29098 2.2452 7.40433 2.34614 7.49903C2.44708 7.59373 2.56265 7.64107 2.69283 7.64107H6.87809ZM3.05968 9.10791C3.18214 9.18071 3.308 9.19634 3.43725 9.15478C3.56651 9.11322 3.66607 9.03121 3.73594 8.90875L4.12155 8.23854C4.08808 8.17161 4.02492 8.10753 3.93207 8.0463C3.83922 7.98507 3.72439 7.9425 3.5876 7.9186C3.45079 7.89469 3.3059 7.90187 3.15291 7.94012L2.90632 8.42663C2.83939 8.55681 2.81788 8.68571 2.84178 8.81332C2.86568 8.94094 2.93832 9.03913 3.05968 9.10791ZM9.00959 9.10791C9.13389 9.03619 9.21085 8.93533 9.24045 8.80533C9.27006 8.67532 9.24901 8.54909 9.17732 8.42663L8.71558 7.64107H9.36654C9.50809 7.64107 9.62907 7.59373 9.72948 7.49903C9.82989 7.40433 9.88009 7.29098 9.88009 7.15896C9.88009 7.0115 9.83063 6.8907 9.73171 6.79655C9.63279 6.7024 9.51106 6.65533 9.36654 6.65533H8.16619L6.83229 4.36442C6.70027 4.45525 6.60291 4.59821 6.54022 4.7933C6.47752 4.9884 6.45619 5.19811 6.47624 5.42243C6.49628 5.64676 6.5565 5.84351 6.6569 6.01268L8.34213 8.90875C8.41204 9.02827 8.50867 9.10881 8.63203 9.15037C8.75538 9.19193 8.88124 9.17778 9.00959 9.10791ZM2.48076 12C1.67628 12 1.0617 11.7876 0.637016 11.363C0.212339 10.9383 0 10.3237 0 9.51922V2.48074C0 1.67625 0.212339 1.06166 0.637016 0.636988C1.0617 0.212317 1.67628 -1.90735e-05 2.48076 -1.90735e-05H9.51921C10.3219 -1.90735e-05 10.936 0.213699 11.3616 0.641134C11.7872 1.06858 12 1.68178 12 2.48074V9.51922C12 10.3182 11.7872 10.9314 11.3616 11.3588C10.936 11.7863 10.3219 12 9.51921 12H2.48076Z" fill="#9A9A9A"/>
</svg>
