<?xml version="1.0" encoding="UTF-8"?>
<!--Generator: Apple Native CoreSVG 329.6-->
<!DOCTYPE svg
PUBLIC "-//W3C//DTD SVG 1.1//EN"
       "http://www.w3.org/Graphics/SVG/1.1/DTD/svg11.dtd">
<svg version="1.1" xmlns="http://www.w3.org/2000/svg" xmlns:xlink="http://www.w3.org/1999/xlink" viewBox="0 0 11.3438 10.7988">
 <g>
  <rect height="10.7988" opacity="0" width="11.3438" x="0" y="0"/>
  <path d="M3.1875 10.7988L7.61133 10.7988C8.64258 10.7988 9.44531 10.5 9.97266 9.97266C10.5176 9.43359 10.8047 8.63086 10.8047 7.60547L10.8047 3.19336C10.8047 2.16797 10.5176 1.36523 9.97266 0.826172C9.43945 0.292969 8.64258 0 7.61133 0L3.1875 0C2.16211 0 1.35352 0.298828 0.826172 0.826172C0.287109 1.36523 0 2.16797 0 3.19336L0 7.60547C0 8.63086 0.28125 9.43359 0.826172 9.97266C1.35938 10.5059 2.16211 10.7988 3.1875 10.7988Z" fill="white" fill-opacity="0.55"/>
 </g>
</svg>
