<?xml version="1.0" encoding="UTF-8"?>
<!--Generator: Apple Native CoreSVG 329.6-->
<!DOCTYPE svg
PUBLIC "-//W3C//DTD SVG 1.1//EN"
       "http://www.w3.org/Graphics/SVG/1.1/DTD/svg11.dtd">
<svg version="1.1" xmlns="http://www.w3.org/2000/svg" xmlns:xlink="http://www.w3.org/1999/xlink" viewBox="0 0 11.707 11.1855">
 <g>
  <rect height="11.1855" opacity="0" width="11.707" x="0" y="0"/>
  <path d="M0.539062 4.74023C0.849609 4.74023 1.07227 4.50586 1.07227 4.19531L1.07227 3.70312L0.955078 1.6582L2.49609 3.28125L4.30078 5.09766C4.40039 5.20312 4.5293 5.25 4.66992 5.25C5.00391 5.25 5.25 5.0332 5.25 4.70508C5.25 4.54688 5.19727 4.40625 5.0918 4.30078L3.28125 2.49609L1.6582 0.955078L3.70898 1.07227L4.19531 1.07227C4.50586 1.07227 4.74609 0.855469 4.74609 0.539062C4.74609 0.222656 4.51172 0 4.19531 0L0.943359 0C0.345703 0 0 0.345703 0 0.943359L0 4.19531C0 4.5 0.228516 4.74023 0.539062 4.74023ZM6.9668 11.1797L10.2188 11.1797C10.8164 11.1797 11.168 10.834 11.168 10.2363L11.168 6.98438C11.168 6.67969 10.9395 6.43945 10.623 6.43945C10.3184 6.43945 10.0898 6.67383 10.0898 6.98438L10.0898 7.47656L10.2129 9.52148L8.66602 7.89844L6.86719 6.08203C6.76758 5.97656 6.63281 5.92969 6.49219 5.92969C6.16406 5.92969 5.91211 6.14648 5.91211 6.47461C5.91211 6.63281 5.9707 6.77344 6.07617 6.87891L7.88086 8.68359L9.50977 10.2246L7.45898 10.1074L6.9668 10.1074C6.65625 10.1074 6.41602 10.3242 6.41602 10.6406C6.41602 10.957 6.65625 11.1797 6.9668 11.1797Z" fill="black"/>
 </g>
</svg>
