<?xml version="1.0" encoding="UTF-8"?>
<!--Generator: Apple Native CoreSVG 329.6-->
<!DOCTYPE svg
PUBLIC "-//W3C//DTD SVG 1.1//EN"
       "http://www.w3.org/Graphics/SVG/1.1/DTD/svg11.dtd">
<svg version="1.1" xmlns="http://www.w3.org/2000/svg" xmlns:xlink="http://www.w3.org/1999/xlink" viewBox="0 0 9.23438 13.5703">
 <g>
  <rect height="13.5703" opacity="0" width="9.23438" x="0" y="0"/>
  <path d="M9.23438 6.78125C9.23438 6.58594 9.15625 6.40625 9.00781 6.26562L2.82031 0.203125C2.67969 0.0703125 2.50781 0 2.30469 0C1.90625 0 1.59375 0.304688 1.59375 0.710938C1.59375 0.90625 1.67188 1.08594 1.79688 1.21875L7.48438 6.78125L1.79688 12.3438C1.67188 12.4766 1.59375 12.6484 1.59375 12.8516C1.59375 13.2578 1.90625 13.5625 2.30469 13.5625C2.50781 13.5625 2.67969 13.4922 2.82031 13.3516L9.00781 7.29688C9.15625 7.14844 9.23438 6.97656 9.23438 6.78125Z" fill="white" fill-opacity="0.55"/>
 </g>
</svg>
