<?xml version="1.0" encoding="UTF-8"?>
<!--Generator: Apple Native CoreSVG 329.6-->
<!DOCTYPE svg
PUBLIC "-//W3C//DTD SVG 1.1//EN"
       "http://www.w3.org/Graphics/SVG/1.1/DTD/svg11.dtd">
<svg version="1.1" xmlns="http://www.w3.org/2000/svg" xmlns:xlink="http://www.w3.org/1999/xlink" viewBox="0 0 3.45117 10.4824">
 <g>
  <rect height="10.4824" opacity="0" width="3.45117" x="0" y="0"/>
  <path d="M1.10742 10.0723L2.67773 6.07617C2.7832 5.80664 2.91211 5.47852 2.91211 5.2207C2.91211 4.96289 2.7832 4.63477 2.67773 4.36523L1.10742 0.369141C1.01953 0.140625 0.820312 0 0.603516 0C0.257812 0 0 0.251953 0 0.591797C0 0.761719 0.0996094 0.996094 0.152344 1.14844L1.91602 5.63672L1.91602 4.80469L0.152344 9.29297C0.0996094 9.44531 0 9.67383 0 9.84961C0 10.1953 0.257812 10.4473 0.603516 10.4473C0.820312 10.4473 1.01953 10.3008 1.10742 10.0723Z" fill="white" fill-opacity="0.85"/>
 </g>
</svg>
