<svg width="16" height="17" viewBox="0 0 16 17" fill="none" xmlns="http://www.w3.org/2000/svg">
<path fill-rule="evenodd" clip-rule="evenodd" d="M13.25 2.72223H2.75C2.61193 2.72223 2.5 2.83416 2.5 2.97223V13.4722C2.5 13.6103 2.61193 13.7222 2.75 13.7222H13.25C13.3881 13.7222 13.5 13.6103 13.5 13.4722V2.97223C13.5 2.83416 13.3881 2.72223 13.25 2.72223ZM2.75 1.22223H13.25C14.2165 1.22223 15 2.00573 15 2.97223V13.4722C15 14.4387 14.2165 15.2222 13.25 15.2222H2.75C1.7835 15.2222 1 14.4387 1 13.4722V2.97223C1 2.00573 1.7835 1.22223 2.75 1.22223ZM8 4.22223C8.41421 4.22223 8.75 4.55802 8.75 4.97223V7.47223H11.25C11.6642 7.47223 12 7.80802 12 8.22223C12 8.63644 11.6642 8.97223 11.25 8.97223H8.75V11.4722C8.75 11.8864 8.41421 12.2222 8 12.2222C7.58579 12.2222 7.25 11.8864 7.25 11.4722V8.97223H4.75C4.33579 8.97223 4 8.63644 4 8.22223C4 7.80802 4.33579 7.47223 4.75 7.47223H7.25V4.97223C7.25 4.55802 7.58579 4.22223 8 4.22223Z" fill="#1F2328"/>
</svg>
