<svg width="16" height="17" viewBox="0 0 16 17" fill="none" xmlns="http://www.w3.org/2000/svg">
<path fill-rule="evenodd" clip-rule="evenodd" d="M2.75 14.1428C1.7835 14.1428 1 13.3593 1 12.3928L1 9.8928C1 9.47859 1.33579 9.1428 1.75 9.1428C2.16421 9.1428 2.5 9.47859 2.5 9.8928L2.5 12.3928C2.5 12.5309 2.61193 12.6428 2.75 12.6428H13.25C13.3881 12.6428 13.5 12.5309 13.5 12.3928V9.8928C13.5 9.47859 13.8358 9.1428 14.25 9.1428C14.6642 9.1428 15 9.47858 15 9.8928V12.3928C15 13.3593 14.2165 14.1428 13.25 14.1428H2.75Z" fill="#1F2328"/>
<path d="M7.25 7.83214L7.25 2.14282C7.25 1.72861 7.58578 1.39282 8 1.39282C8.41421 1.39282 8.75 1.72861 8.75 2.14282L8.75 7.83214L10.7197 5.86247C11.0126 5.56958 11.4874 5.56958 11.7803 5.86247C12.0732 6.15536 12.0732 6.63024 11.7803 6.92313L8.53033 10.1731C8.23744 10.466 7.76256 10.466 7.46967 10.1731L4.21967 6.92313C3.92678 6.63024 3.92678 6.15536 4.21967 5.86247C4.51256 5.56958 4.98744 5.56958 5.28033 5.86247L7.25 7.83214Z" fill="#1F2328"/>
</svg>
