<svg width="16" height="17" viewBox="0 0 16 17" fill="none" xmlns="http://www.w3.org/2000/svg">
<path fill-rule="evenodd" clip-rule="evenodd" d="M1.75 1.33337C1.28587 1.33337 0.840752 1.51774 0.512563 1.84593C0.184374 2.17412 0 2.61924 0 3.08337V13.5834C0 14.5494 0.784 15.3334 1.75 15.3334H14.25C14.7141 15.3334 15.1592 15.149 15.4874 14.8208C15.8156 14.4926 16 14.0475 16 13.5834V5.08337C16 4.61924 15.8156 4.17412 15.4874 3.84593C15.1592 3.51774 14.7141 3.33337 14.25 3.33337H7.75C7.71119 3.33337 7.67291 3.32433 7.6382 3.30698C7.60348 3.28962 7.57329 3.26442 7.55 3.23337L6.65 2.03337C6.32 1.59337 5.8 1.33337 5.25 1.33337H1.75Z" fill="#7A7F81"/>
</svg>
