<?xml version="1.0" encoding="UTF-8"?>
<!--Generator: Apple Native CoreSVG 329.6-->
<!DOCTYPE svg
PUBLIC "-//W3C//DTD SVG 1.1//EN"
       "http://www.w3.org/Graphics/SVG/1.1/DTD/svg11.dtd">
<svg version="1.1" xmlns="http://www.w3.org/2000/svg" xmlns:xlink="http://www.w3.org/1999/xlink" viewBox="0 0 18.1484 14.3984">
 <g>
  <rect height="14.3984" opacity="0" width="18.1484" x="0" y="0"/>
  <path d="M2.45312 14.2969L15.5234 14.2969C16.9219 14.2969 17.7422 13.4844 17.7422 11.875L17.7422 3.85156C17.7422 2.24219 16.9141 1.42969 15.2891 1.42969L7.39844 1.42969C6.86719 1.42969 6.54688 1.30469 6.15625 0.96875L5.67969 0.578125C5.16406 0.140625 4.76562 0 3.99219 0L2.15625 0C0.789062 0 0 0.78125 0 2.35156L0 11.875C0 13.4922 0.820312 14.2969 2.45312 14.2969ZM1.44531 4.09375L1.44531 3.65625C1.44531 3.17969 1.78125 2.875 2.36719 2.875L15.3438 2.875C15.9219 2.875 16.2656 3.17969 16.2656 3.65625L16.2656 4.09375Z" fill="white" fill-opacity="0.55"/>
 </g>
</svg>
