<svg width="16" height="17" viewBox="0 0 16 17" fill="none" xmlns="http://www.w3.org/2000/svg">
<path fill-rule="evenodd" clip-rule="evenodd" d="M11.75 2.94446C11.3358 2.94446 11 3.28025 11 3.69446C11 4.10867 11.3358 4.44446 11.75 4.44446C12.1642 4.44446 12.5 4.10867 12.5 3.69446C12.5 3.28025 12.1642 2.94446 11.75 2.94446ZM9.5 3.69446C9.5 2.45182 10.5074 1.44446 11.75 1.44446C12.9926 1.44446 14 2.45182 14 3.69446C14 4.67412 13.3739 5.50755 12.5 5.81643V6.44446C12.5 7.82517 11.3807 8.94446 10 8.94446H6C5.44772 8.94446 5 9.39218 5 9.94446V11.0725C5.87389 11.3814 6.5 12.2148 6.5 13.1945C6.5 14.4371 5.49264 15.4445 4.25 15.4445C3.00736 15.4445 2 14.4371 2 13.1945C2 12.2148 2.62611 11.3814 3.5 11.0725V9.94446V5.81643C2.62611 5.50755 2 4.67412 2 3.69446C2 2.45182 3.00736 1.44446 4.25 1.44446C5.49264 1.44446 6.5 2.45182 6.5 3.69446C6.5 4.67412 5.87389 5.50755 5 5.81643V7.65248C5.30623 7.51868 5.64445 7.44446 6 7.44446H10C10.5523 7.44446 11 6.99674 11 6.44446V5.81643C10.1261 5.50755 9.5 4.67412 9.5 3.69446ZM4.25 12.4445C3.83579 12.4445 3.5 12.7803 3.5 13.1945C3.5 13.6087 3.83579 13.9445 4.25 13.9445C4.66421 13.9445 5 13.6087 5 13.1945C5 12.7803 4.66421 12.4445 4.25 12.4445ZM3.5 3.69446C3.5 3.28025 3.83579 2.94446 4.25 2.94446C4.66421 2.94446 5 3.28025 5 3.69446C5 4.10867 4.66421 4.44446 4.25 4.44446C3.83579 4.44446 3.5 4.10867 3.5 3.69446Z" fill="#B1B1B2"/>
</svg>
