<?xml version="1.0" encoding="UTF-8"?>
<!--Generator: Apple Native CoreSVG 329.6-->
<!DOCTYPE svg
PUBLIC "-//W3C//DTD SVG 1.1//EN"
       "http://www.w3.org/Graphics/SVG/1.1/DTD/svg11.dtd">
<svg version="1.1" xmlns="http://www.w3.org/2000/svg" xmlns:xlink="http://www.w3.org/1999/xlink" viewBox="0 0 15.4235 14.2321">
 <g>
  <rect height="14.2321" opacity="0" width="15.4235" x="0" y="0"/>
  <path d="M0.358224 12.9198L1.30158 13.8631C1.81721 14.3905 2.42072 14.3553 2.96565 13.7401L10.2488 5.55454L9.66291 4.96861L2.43244 13.0897C2.21565 13.3241 2.01643 13.3827 1.73518 13.1014L1.11408 12.4862C0.838692 12.2108 0.897286 12.0116 1.13752 11.7889L9.23518 4.32994L8.64924 3.74986L0.481271 11.2616C-0.116386 11.8124-0.157401 12.3983 0.358224 12.9198ZM5.74299 1.22447C5.4969 1.4647 5.47346 1.8104 5.61408 2.03892C5.74885 2.25572 6.0301 2.4022 6.4051 2.30845C7.10822 2.10923 7.91682 2.02134 8.67268 2.41978L8.35041 3.27525C8.15705 3.75572 8.26252 4.10142 8.55549 4.40611L9.78596 5.64244C10.0672 5.92954 10.3309 5.9354 10.6356 5.87681L11.1688 5.78892L11.4793 6.09361L11.4559 6.36314C11.4442 6.63853 11.5203 6.87876 11.7899 7.14244L12.1942 7.54087C12.4696 7.81626 12.8563 7.8397 13.1317 7.56431L14.6903 5.99986C14.9656 5.71861 14.9481 5.35533 14.6668 5.07994L14.2567 4.66978C13.993 4.40611 13.7703 4.3065 13.4949 4.32408L13.2137 4.35337L12.9207 4.0604L13.0438 3.4979C13.1199 3.16978 13.0145 2.90025 12.6981 2.58384L11.3446 1.24204C9.79182-0.298971 7.07307-0.0821742 5.74299 1.22447ZM6.5926 1.47056C7.64729 0.702982 9.70979 0.790873 10.6356 1.70494L12.1121 3.16978C12.2352 3.29283 12.2586 3.38658 12.2235 3.56822L12.0477 4.36509L12.8563 5.16783L13.3836 5.13853C13.5184 5.13267 13.5653 5.14439 13.6649 5.244L13.9696 5.54283L12.6688 6.84361L12.3699 6.54478C12.2703 6.43931 12.2528 6.39829 12.2586 6.25767L12.2938 5.73619L11.491 4.92759L10.6707 5.06822C10.5008 5.10337 10.4246 5.09165 10.2899 4.96275L9.2176 3.89634C9.08869 3.77329 9.07697 3.69126 9.159 3.49204L9.70979 2.11509C8.97736 1.35337 7.66486 1.21275 6.63947 1.56431C6.55744 1.59361 6.52815 1.51744 6.5926 1.47056Z" fill="white" fill-opacity="0.55"/>
 </g>
</svg>
