<svg width="16" height="16" viewBox="0 0 16 16" fill="none" xmlns="http://www.w3.org/2000/svg">
<path d="M1.70991 0.95837C1.70991 1.13161 1.75665 1.29119 1.85014 1.43712C1.94364 1.58304 2.06922 1.69901 2.22688 1.78502C2.38455 1.87102 2.55928 1.91402 2.75108 1.91402C2.94129 1.91402 3.11612 1.87102 3.2756 1.78502C3.43508 1.69901 3.56156 1.58304 3.65506 1.43712C3.74855 1.29119 3.7953 1.13161 3.7953 0.95837C3.7953 0.781704 3.74855 0.619956 3.65506 0.473125C3.56156 0.326294 3.43508 0.210729 3.2756 0.126433C3.11612 0.0421442 2.94129 0 2.75108 0C2.55928 0 2.38455 0.0421442 2.22688 0.126433C2.06922 0.210729 1.94364 0.326294 1.85014 0.473125C1.75665 0.619956 1.70991 0.781704 1.70991 0.95837ZM3.63499 4.18481C3.63499 3.90375 3.55449 3.6857 3.39348 3.53065C3.23246 3.37561 3.01833 3.29808 2.75108 3.29808C2.48396 3.29808 2.26906 3.37561 2.10638 3.53065C1.94369 3.6857 1.86235 3.903 1.86235 4.18254V12.9498C1.86235 13.3489 1.7705 13.6465 1.58679 13.8426C1.40307 14.0388 1.0925 14.1575 0.655057 14.1986C0.432333 14.2309 0.267474 14.2991 0.160479 14.4033C0.0534931 14.5074 0 14.6454 0 14.8173C0 15.0408 0.093197 15.2151 0.279591 15.3402C0.465985 15.4653 0.727424 15.5279 1.06391 15.5279C1.61199 15.5279 2.07777 15.4345 2.46125 15.2478C2.84474 15.061 3.13623 14.7833 3.33574 14.4147C3.53524 14.0461 3.63499 13.5933 3.63499 13.0561V4.18481ZM5.33766 10.648C5.47677 11.0356 5.71926 11.375 6.06512 11.6662C6.41098 11.9574 6.84475 12.1838 7.36645 12.3453C7.88814 12.5067 8.46811 12.5875 9.10635 12.5875C9.86726 12.5875 10.5409 12.4738 11.1273 12.2464C11.7138 12.0191 12.1692 11.6981 12.4935 11.2835C12.8178 10.8689 12.98 10.3887 12.98 9.84286C12.98 9.40328 12.8879 9.03231 12.7036 8.72996C12.5193 8.42761 12.227 8.1723 11.8267 7.96402C11.4265 7.75573 10.8941 7.58075 10.2295 7.43908L8.77658 7.12815C8.20926 7.00448 7.79673 6.83992 7.53899 6.63447C7.28126 6.42902 7.15239 6.16929 7.15239 5.85529C7.15239 5.60061 7.23333 5.37397 7.39522 5.17535C7.5571 4.97673 7.78372 4.82118 8.07508 4.70868C8.36645 4.59618 8.69673 4.53993 9.06592 4.53993C9.49894 4.53993 9.86782 4.61438 10.1725 4.76329C10.4773 4.91219 10.7426 5.12939 10.9685 5.41488C11.0585 5.52513 11.1452 5.65966 11.2285 5.81847C11.3074 5.95236 11.4066 6.04716 11.5262 6.10289C11.6458 6.15862 11.7784 6.18649 11.9242 6.18649C12.1471 6.18649 12.3187 6.13112 12.4391 6.02038C12.5595 5.90963 12.6197 5.76124 12.6197 5.57519C12.6197 5.49146 12.6037 5.39712 12.5715 5.29218C12.4772 4.91154 12.2704 4.5694 11.9511 4.26576C11.6319 3.96213 11.2257 3.72381 10.7326 3.55079C10.2395 3.37776 9.70013 3.29125 9.11458 3.29125C8.38039 3.29125 7.73399 3.40138 7.17536 3.62162C6.61673 3.84187 6.18429 4.15244 5.87806 4.55334C5.57183 4.95424 5.41872 5.41871 5.41872 5.94675C5.41872 6.57708 5.64492 7.09771 6.09732 7.50863C6.54973 7.91957 7.23583 8.22405 8.15562 8.42206L9.63027 8.73569C10.1997 8.86126 10.6038 9.01993 10.8426 9.21169C11.0813 9.40346 11.2007 9.66716 11.2007 10.0028C11.2007 10.2696 11.115 10.5035 10.9435 10.7046C10.772 10.9057 10.5332 11.0617 10.2269 11.1725C9.92059 11.2834 9.5697 11.3388 9.17421 11.3388C8.58723 11.3388 8.10284 11.2355 7.72103 11.0288C7.33923 10.8222 7.0321 10.5092 6.79967 10.0898C6.68296 9.93038 6.56021 9.81363 6.43141 9.73957C6.3026 9.66551 6.16131 9.62848 6.00754 9.62848C5.79022 9.62848 5.6118 9.68973 5.47227 9.81224C5.33273 9.93475 5.26297 10.0954 5.26297 10.2943C5.26297 10.4084 5.28786 10.5263 5.33766 10.648Z" fill="#EA7EAA"/>
</svg>
