<?xml version="1.0" encoding="UTF-8"?>
<!--Generator: Apple Native CoreSVG 329.6-->
<!DOCTYPE svg
PUBLIC "-//W3C//DTD SVG 1.1//EN"
       "http://www.w3.org/Graphics/SVG/1.1/DTD/svg11.dtd">
<svg version="1.1" xmlns="http://www.w3.org/2000/svg" xmlns:xlink="http://www.w3.org/1999/xlink" viewBox="0 0 8.33058 7.8091">
 <g>
  <rect height="7.8091" opacity="0" width="8.33058" x="0" y="0"/>
  <path d="M0.89576 7.65748L7.6399 0.907479C7.84498 0.70826 7.85084 0.362557 7.6399 0.163338C7.44068-0.0417401 7.10084-0.0358807 6.90162 0.163338L0.151619 6.91334C-0.0475995 7.11256-0.0534588 7.4524 0.151619 7.65748C0.350838 7.86256 0.696541 7.8567 0.89576 7.65748ZM0.151619 0.907479L6.90162 7.65748C7.10084 7.8567 7.44068 7.86256 7.6399 7.65748C7.85084 7.4524 7.84498 7.11256 7.6399 6.91334L0.89576 0.163338C0.696541-0.0358807 0.350838-0.0417401 0.151619 0.163338C-0.0534588 0.362557-0.0475995 0.70826 0.151619 0.907479Z" fill="black"/>
 </g>
</svg>
