<?xml version="1.0" encoding="UTF-8"?>
<!--Generator: Apple Native CoreSVG 329.6-->
<!DOCTYPE svg
PUBLIC "-//W3C//DTD SVG 1.1//EN"
       "http://www.w3.org/Graphics/SVG/1.1/DTD/svg11.dtd">
<svg version="1.1" xmlns="http://www.w3.org/2000/svg" xmlns:xlink="http://www.w3.org/1999/xlink" viewBox="0 0 20.3208 16.9938">
 <g>
  <rect height="16.9938" opacity="0" width="20.3208" x="0" y="0"/>
  <path d="M15.3987 2.02425L15.7821 4.19612L14.5059 4.19612L14.1721 2.3055C14.0315 1.50862 13.5237 1.1805 12.7659 1.3055L2.29713 3.14925C1.5237 3.28987 1.17213 3.77425 1.31276 4.57893L2.57057 11.7039C2.7112 12.5008 3.2112 12.8367 3.97682 12.7039L4.34401 12.6393L4.34401 13.9172L4.17995 13.9461C2.56276 14.2274 1.61745 13.5711 1.34401 11.9852L0.0627583 4.72737C-0.218492 3.14143 0.445571 2.20393 2.05495 1.91487L12.5706 0.0633076C14.1721-0.217942 15.1253 0.438308 15.3987 2.02425Z" fill="#5ac8f5"/>
  <path d="M9.90651 10.1883C10.8206 10.1883 11.5628 9.4305 11.5628 8.51643C11.5628 7.618 10.8206 6.86018 9.90651 6.86018C8.99245 6.86018 8.25807 7.618 8.25807 8.51643C8.25807 9.4305 8.99245 10.1883 9.90651 10.1883ZM6.82057 15.993L17.2737 15.993C18.6409 15.993 19.3596 15.3055 19.3596 13.9383L19.3596 13.4383L15.7424 10.0164C15.4378 9.73518 15.0628 9.59456 14.6799 9.59456C14.2971 9.59456 13.9534 9.71956 13.6253 10.0086L10.469 12.8055L9.21901 11.6727C8.91432 11.3992 8.60182 11.2742 8.26588 11.2742C7.9612 11.2742 7.66432 11.3992 7.36745 11.6571L4.73463 13.9461C4.73463 15.3055 5.4612 15.993 6.82057 15.993ZM6.78932 16.4071L17.469 16.4071C19.094 16.4071 19.9143 15.5946 19.9143 13.9852L19.9143 6.618C19.9143 5.00862 19.094 4.19612 17.469 4.19612L6.78932 4.19612C5.15651 4.19612 4.34401 5.00862 4.34401 6.618L4.34401 13.9852C4.34401 15.6024 5.15651 16.4071 6.78932 16.4071ZM6.81276 15.1492C6.03151 15.1492 5.60182 14.7352 5.60182 13.9227L5.60182 6.68831C5.60182 5.87581 6.03151 5.45393 6.81276 5.45393L17.4456 5.45393C18.219 5.45393 18.6565 5.87581 18.6565 6.68831L18.6565 13.9227C18.6565 14.7352 18.219 15.1492 17.4456 15.1492Z" fill="#5ac8f5"/>
 </g>
</svg>
