<svg width="16" height="16" viewBox="0 0 16 16" fill="none" xmlns="http://www.w3.org/2000/svg">
<path d="M11.5669 0.823223C12.3597 2.00659 12.3777 2.39375 12.3037 3.75604C12.5772 3.71824 12.8507 3.68043 13.1326 3.64148C14.1456 3.75604 14.1456 3.75604 14.9745 4.46634C15.9537 6.17152 16.258 7.8138 15.7732 9.74055C15.0849 11.6197 15.0849 11.6197 14.514 12.1879C13.7774 12.2029 13.0403 12.2035 12.3037 12.1879C12.2695 12.789 12.2695 12.789 12.2346 13.4023C11.9353 14.7541 11.9353 14.7541 11.1337 15.3799C9.96277 15.9134 9.16556 16.0012 7.88299 15.9914C7.51068 15.9942 7.13838 15.9971 6.75479 16C5.51586 15.8328 4.8181 15.5109 3.83069 14.7541C3.53137 13.5856 3.53137 13.5856 3.4623 12.5545C2.94943 12.5205 2.94943 12.5205 2.4262 12.4858C1.25195 12.1879 1.25195 12.1879 0.634611 11.4031C0.0618214 10.1723 -0.000811506 9.30107 0.00863416 7.94906C0.00578489 7.54029 0.00293561 7.13151 0 6.71035C0.159949 5.48846 0.374836 4.97923 1.25195 4.12265C2.4262 3.8477 2.4262 3.8477 3.4623 3.75604C3.4699 3.3553 3.47749 2.95456 3.48532 2.54167C3.83069 1.18983 3.83069 1.18983 4.95889 0.479533C7.19014 -0.257575 9.41316 -0.146356 11.5669 0.823223ZM5.30425 1.92303C5.18268 2.52793 5.06111 3.13282 4.93586 3.75604C6.15155 3.75604 7.36724 3.75604 8.61977 3.75604C8.61977 4.23996 8.61977 4.72388 8.61977 5.22246C8.2071 5.2097 7.79443 5.19694 7.36925 5.18379C6.82675 5.17347 6.28423 5.16347 5.74172 5.15372C5.33391 5.13989 5.33391 5.13989 4.91787 5.12579C3.37255 5.08777 3.37255 5.08777 2.00312 5.71221C1.16636 7.04579 1.19176 8.23325 1.50522 9.73625C1.88085 10.7781 1.88085 10.7781 2.77156 11.0423C2.99951 11.0574 3.22745 11.0725 3.4623 11.0881C3.62186 10.4756 3.62186 10.4756 3.78464 9.85081C4.19908 8.52188 4.19908 8.52188 4.93586 7.78867C6.26373 7.64617 7.58485 7.60251 8.91909 7.54809C10.1268 7.54205 10.1268 7.54205 10.8301 6.68887C10.9198 5.62615 10.9198 5.62615 10.8762 4.44342C10.8695 4.04174 10.8629 3.64005 10.856 3.22619C10.8475 2.91713 10.8389 2.60806 10.8301 2.28963C9.02168 1.27104 7.28982 1.26439 5.30425 1.92303ZM12.3037 5.22246C12.2049 5.63076 12.1061 6.03906 12.0044 6.45974C11.5669 7.78867 11.5669 7.78867 10.4617 8.52188C9.22513 8.65983 7.99623 8.70731 6.75335 8.76246C5.6284 8.78098 5.6284 8.78098 4.93586 9.62169C4.84628 10.6003 4.84628 10.6003 4.88981 11.6838C4.89646 12.0515 4.90311 12.4192 4.90996 12.798C4.91851 13.0806 4.92705 13.3632 4.93586 13.6543C6.49873 14.4968 7.39523 14.9074 9.14933 14.4563C9.58242 14.3126 10.0155 14.1689 10.4617 14.0209C10.5833 13.537 10.7049 13.0531 10.8301 12.5545C9.61442 12.5545 8.39873 12.5545 7.14621 12.5545C7.26777 12.0706 7.38934 11.5867 7.5146 11.0881C10.6146 10.9066 10.6146 10.9066 13.7772 10.7215C14.6169 8.63258 14.5285 8.06831 14.1456 5.95566C14.0241 5.7137 13.9025 5.47174 13.7772 5.22246C13.291 5.22246 12.8047 5.22246 12.3037 5.22246Z" fill="#FFD50B"/>
</svg>
