<?xml version="1.0" encoding="UTF-8"?>
<!--Generator: Apple Native CoreSVG 329.6-->
<!DOCTYPE svg
PUBLIC "-//W3C//DTD SVG 1.1//EN"
       "http://www.w3.org/Graphics/SVG/1.1/DTD/svg11.dtd">
<svg version="1.1" xmlns="http://www.w3.org/2000/svg" xmlns:xlink="http://www.w3.org/1999/xlink" viewBox="0 0 17.7344 15.5391">
 <g>
  <rect height="15.5391" opacity="0" width="17.7344" x="0" y="0"/>
  <path d="M0 9.92188C1.3125 12.0625 4.73438 15.3594 9.35156 15.3594C12.2891 15.3594 13.1016 13.9922 14.8047 13.9922C16.2266 13.9922 16.7891 14.9453 17.0078 15.3203C17.0703 15.4375 17.1797 15.5156 17.2422 15.2891C17.2812 15.125 17.3281 14.9062 17.3281 14.6406C17.3281 13.8906 17.0938 12.4609 15.8438 10.8906C16.1172 10.125 16.1484 9.27344 16.1484 8.77344C16.1484 6.5 14.8672 2.54688 10.6328 0C11.5156 1.24219 12.6953 3.14062 12.6953 5.76562C12.6953 6.71875 12.4375 7.76562 12.2266 8.28906C9.92188 6.95312 5.51562 3.28125 3.75781 1.40625C5.17188 3.57812 6.84375 5.54688 8.70312 7.60938C6.20312 6.02344 3.875 4.25781 1.71094 2.32031C3.78906 5.33594 6.41406 8.30469 9.88281 11.1094C8.89062 11.6641 7.875 12.0938 6.125 12.0938C4.00781 12.0938 1.41406 11.0703 0 9.92188Z" fill="#ff8714"/>
 </g>
</svg>
