<?xml version="1.0" encoding="UTF-8"?>
<!--Generator: Apple Native CoreSVG 329.6-->
<!DOCTYPE svg
PUBLIC "-//W3C//DTD SVG 1.1//EN"
       "http://www.w3.org/Graphics/SVG/1.1/DTD/svg11.dtd">
<svg version="1.1" xmlns="http://www.w3.org/2000/svg" xmlns:xlink="http://www.w3.org/1999/xlink" viewBox="0 0 10.3945 12.5684">
 <g>
  <rect height="12.5684" opacity="0" width="10.3945" x="0" y="0"/>
  <path d="M0 10.7285C0 11.9531 0.603516 12.5625 1.81641 12.5625L8.03906 12.5625C9.25195 12.5625 9.85547 11.9531 9.85547 10.7285L9.85547 1.83984C9.85547 0.621094 9.25195 0 8.03906 0L1.81641 0C0.603516 0 0 0.621094 0 1.83984ZM0.943359 10.7109L0.943359 1.85742C0.943359 1.27148 1.25391 0.943359 1.86328 0.943359L7.99219 0.943359C8.60156 0.943359 8.91211 1.27148 8.91211 1.85742L8.91211 10.7109C8.91211 11.2969 8.60156 11.6191 7.99219 11.6191L1.86328 11.6191C1.25391 11.6191 0.943359 11.2969 0.943359 10.7109Z" fill="white" fill-opacity="0.55"/>
  <path d="M2.70703 3.39258L7.1543 3.39258C7.35938 3.39258 7.51172 3.23438 7.51172 3.0293C7.51172 2.83008 7.35938 2.67188 7.1543 2.67188L2.70703 2.67188C2.49609 2.67188 2.34375 2.83008 2.34375 3.0293C2.34375 3.23438 2.49609 3.39258 2.70703 3.39258Z" fill="white" fill-opacity="0.55"/>
  <path d="M2.70703 5.4375L7.1543 5.4375C7.35938 5.4375 7.51172 5.2793 7.51172 5.07422C7.51172 4.875 7.35938 4.7168 7.1543 4.7168L2.70703 4.7168C2.49609 4.7168 2.34375 4.875 2.34375 5.07422C2.34375 5.2793 2.49609 5.4375 2.70703 5.4375Z" fill="white" fill-opacity="0.55"/>
  <path d="M2.70703 7.48242L4.81055 7.48242C5.02148 7.48242 5.17383 7.33008 5.17383 7.13086C5.17383 6.91992 5.02148 6.76172 4.81055 6.76172L2.70703 6.76172C2.49609 6.76172 2.34375 6.91992 2.34375 7.13086C2.34375 7.33008 2.49609 7.48242 2.70703 7.48242Z" fill="white" fill-opacity="0.55"/>
 </g>
</svg>
