<svg width="16" height="17" viewBox="0 0 16 17" fill="none" xmlns="http://www.w3.org/2000/svg">
<g clip-path="url(#clip0_964_34)">
<path fill-rule="evenodd" clip-rule="evenodd" d="M2.34315 14.0856C-0.781049 10.9614 -0.781049 5.89605 2.34315 2.77186C5.46734 -0.352338 10.5327 -0.352338 13.6569 2.77186C16.781 5.89605 16.781 10.9614 13.6569 14.0856C10.5327 17.2098 5.46734 17.2098 2.34315 14.0856ZM6.03032 5.39838C5.73743 5.10549 5.26256 5.10549 4.96966 5.39838C4.67677 5.69127 4.67677 6.16615 4.96966 6.45904L6.93933 8.42871L4.96966 10.3984C4.67677 10.6913 4.67677 11.1661 4.96966 11.459C5.26256 11.7519 5.73743 11.7519 6.03032 11.459L7.99999 9.48937L9.96966 11.459C10.2626 11.7519 10.7374 11.7519 11.0303 11.459C11.3232 11.1661 11.3232 10.6913 11.0303 10.3984L9.06065 8.42871L11.0303 6.45905C11.3232 6.16615 11.3232 5.69128 11.0303 5.39839C10.7374 5.10549 10.2626 5.10549 9.96966 5.39839L7.99999 7.36805L6.03032 5.39838Z" fill="#1F2328"/>
</g>
<defs>
<clipPath id="clip0_964_34">
<rect width="16" height="16" fill="white" transform="translate(0 0.428711)"/>
</clipPath>
</defs>
</svg>
